<svg width="64" height="64" viewBox="0 0 64 64" fill="none" xmlns="http://www.w3.org/2000/svg">
<path d="M26.8542 54.6743C26.8541 54.2833 26.768 53.897 26.6021 53.5429C26.4361 53.1887 26.1942 52.8755 25.8937 52.6252C25.5931 52.375 25.2412 52.1939 24.8629 52.0949C24.4846 51.9958 24.0891 51.9811 23.7044 52.0519C20.2136 52.6926 15.806 52.7889 14.6341 49.4973C13.6123 46.948 11.9196 44.7227 9.73569 43.0573C9.57987 42.9725 9.43136 42.875 9.29169 42.7656C9.10055 42.2614 8.76106 41.827 8.31799 41.5197C7.87493 41.2124 7.34911 41.0466 6.80991 41.0442H6.79689C6.09182 41.044 5.41537 41.3231 4.91559 41.8204C4.41581 42.3177 4.13342 42.9928 4.13023 43.6979C4.1198 45.8724 6.29289 47.2656 7.17449 47.737C8.21408 48.7815 9.04956 50.0108 9.63804 51.3619C10.6094 54.0911 13.4323 58.2317 21.5469 57.6979C21.5496 57.7917 21.5521 57.8802 21.5534 57.961L21.5651 58.6745C21.5651 59.3817 21.8461 60.06 22.3462 60.5601C22.8463 61.0602 23.5245 61.3412 24.2318 61.3412C24.939 61.3412 25.6173 61.0602 26.1174 60.5601C26.6175 60.06 26.8984 59.3817 26.8984 58.6745L26.8854 57.8255C26.8724 57.3202 26.8542 56.5884 26.8542 54.6743ZM55.2995 14.3383C55.3841 14.005 55.4675 13.6352 55.5404 13.2186C55.9717 10.2468 55.5957 7.21373 54.4518 4.43722C54.3075 4.07525 54.0858 3.74924 53.8021 3.48203C53.5185 3.21482 53.1799 3.01288 52.8099 2.89037C51.8606 2.57005 48.3555 1.93983 41.6524 6.2237C36.0805 4.91248 30.2803 4.91248 24.7084 6.2237C18.0326 2.00258 14.5456 2.57538 13.6055 2.87746C13.2264 2.99501 12.8785 3.19588 12.5872 3.46535C12.2959 3.73482 12.0686 4.06606 11.9219 4.43479C10.7547 7.26461 10.3828 10.3595 10.8464 13.3853C10.9115 13.7264 10.9818 14.0416 11.0547 14.3306C8.84556 17.2731 7.66887 20.8622 7.70705 24.5415C7.69985 25.3624 7.73767 26.1831 7.82033 26.9999C8.711 39.2733 16.711 42.9582 22.2852 44.2239C22.1693 44.5572 22.0638 44.9139 21.9701 45.2916C21.803 45.9777 21.9148 46.7021 22.281 47.3059C22.6472 47.9097 23.2379 48.3436 23.9236 48.5125C24.6093 48.6815 25.3339 48.5716 25.9387 48.207C26.5435 47.8424 26.979 47.2528 27.1497 46.5676C27.3194 45.6791 27.7543 44.8628 28.3972 44.2264C28.7858 43.8862 29.0673 43.4403 29.2072 42.943C29.3471 42.4457 29.3395 41.9184 29.1852 41.4254C29.031 40.9324 28.7368 40.4948 28.3385 40.1659C27.9401 39.837 27.4547 39.6309 26.9414 39.5728C17.7305 38.5207 13.7318 34.7681 13.1302 26.5103C13.0636 25.8563 13.0336 25.199 13.0404 24.5416C12.9976 21.9193 13.8639 19.3631 15.4922 17.3072C15.6558 17.0929 15.8301 16.8869 16.0143 16.69C16.3408 16.3247 16.5603 15.8764 16.6488 15.3945C16.7372 14.9126 16.6912 14.4157 16.5157 13.9582C16.3358 13.477 16.1972 12.9813 16.1016 12.4764C15.8844 11.041 15.9556 9.57669 16.3112 8.16914C18.6289 8.82373 20.8102 9.88925 22.7512 11.315C23.0722 11.5288 23.4354 11.671 23.8162 11.7321C24.197 11.7932 24.5865 11.7718 24.9583 11.6691C30.3479 10.2065 36.03 10.2074 41.4192 11.6718C41.793 11.7743 42.1845 11.7946 42.5669 11.7312C42.9492 11.6678 43.3133 11.5223 43.634 11.3046C45.566 9.873 47.7381 8.79796 50.0481 8.13015C50.4021 9.5039 50.4813 10.934 50.2812 12.3385C50.1846 12.8919 50.0337 13.4345 49.8306 13.9583C49.6551 14.4157 49.6091 14.9127 49.6975 15.3946C49.786 15.8765 50.0055 16.3247 50.332 16.69C50.5377 16.9218 50.7434 17.1718 50.9283 17.4062C52.5451 19.4273 53.3968 21.9541 53.3333 24.5415C53.3382 25.2338 53.3047 25.9259 53.2331 26.6144C52.6459 34.7629 48.6315 38.5181 39.3776 39.5728C38.8642 39.6312 38.3788 39.8376 37.9805 40.1669C37.5821 40.4961 37.2881 40.934 37.134 41.4272C36.9799 41.9205 36.9725 42.4479 37.1126 42.9453C37.2527 43.4427 37.5343 43.8887 37.9232 44.229C38.5862 44.8824 39.0221 45.7313 39.1667 46.6509C39.3469 47.3648 39.4297 48.0997 39.4128 48.8358V55.0598C39.3867 56.7863 39.3867 58.0806 39.3867 58.6743C39.3867 59.3816 39.6676 60.0599 40.1677 60.56C40.6678 61.0601 41.3461 61.341 42.0533 61.341C42.7606 61.341 43.4389 61.0601 43.939 60.56C44.4391 60.0599 44.72 59.3816 44.72 58.6743C44.72 58.0962 44.72 56.828 44.7461 55.1014V48.8358C44.7675 47.6567 44.6287 46.4801 44.3333 45.3384C44.2488 44.9636 44.1454 44.5934 44.0234 44.2291C48.0801 43.5552 51.766 41.4636 54.4251 38.3267C57.0841 35.1898 58.5438 31.2111 58.5442 27.0988C58.6321 26.2493 58.673 25.3956 58.6667 24.5415C58.7259 20.8583 57.5394 17.2629 55.2995 14.3384L55.2995 14.3383Z" fill="#BF267A"/>
</svg>
