<svg width="64" height="64" viewBox="0 0 64 64" fill="none" xmlns="http://www.w3.org/2000/svg">
<path d="M46.24 14.5599C45.6071 14.5599 44.9884 14.7476 44.4622 15.0992C43.9359 15.4508 43.5258 15.9506 43.2836 16.5353C43.0414 17.1201 42.978 17.7635 43.1015 18.3842C43.225 19.0049 43.5297 19.5751 43.9773 20.0227C44.4248 20.4702 44.995 20.775 45.6157 20.8984C46.2365 21.0219 46.8799 20.9585 47.4646 20.7163C48.0493 20.4741 48.5491 20.064 48.9007 19.5377C49.2523 19.0115 49.44 18.3928 49.44 17.7599C49.44 16.9112 49.1029 16.0973 48.5028 15.4972C47.9026 14.8971 47.0887 14.5599 46.24 14.5599V14.5599ZM58.5067 21.0133C58.4548 18.8007 58.0404 16.6117 57.28 14.5333C56.602 12.7549 55.5466 11.1447 54.1867 9.81325C52.8662 8.44639 51.2522 7.39772 49.4667 6.74659C47.3938 5.96301 45.2023 5.53915 42.9867 5.49325C40.16 5.33325 39.2533 5.33325 32 5.33325C24.7467 5.33325 23.84 5.33325 21.0133 5.49325C18.7978 5.53915 16.6063 5.96301 14.5333 6.74659C12.7511 7.40431 11.1385 8.45208 9.81334 9.81325C8.44648 11.1337 7.39781 12.7478 6.74668 14.5333C5.96311 16.6062 5.53924 18.7977 5.49334 21.0133C5.33334 23.8399 5.33334 24.7466 5.33334 31.9999C5.33334 39.2533 5.33334 40.1599 5.49334 42.9866C5.53924 45.2022 5.96311 47.3937 6.74668 49.4666C7.39781 51.2521 8.44648 52.8661 9.81334 54.1866C11.1385 55.5478 12.7511 56.5955 14.5333 57.2533C16.6063 58.0368 18.7978 58.4607 21.0133 58.5066C23.84 58.6666 24.7467 58.6666 32 58.6666C39.2533 58.6666 40.16 58.6666 42.9867 58.5066C45.2023 58.4607 47.3938 58.0368 49.4667 57.2533C51.2522 56.6021 52.8662 55.5535 54.1867 54.1866C55.5527 52.8601 56.6089 51.2484 57.28 49.4666C58.0404 47.3882 58.4548 45.1991 58.5067 42.9866C58.5067 40.1599 58.6667 39.2533 58.6667 31.9999C58.6667 24.7466 58.6667 23.8399 58.5067 21.0133V21.0133ZM53.7067 42.6666C53.6873 44.3593 53.3807 46.0365 52.8 47.6266C52.3742 48.7871 51.6904 49.8357 50.8 50.6933C49.9351 51.5746 48.8886 52.2571 47.7333 52.6933C46.1432 53.2739 44.4661 53.5805 42.7733 53.5999C40.1067 53.7333 39.12 53.7599 32.1067 53.7599C25.0933 53.7599 24.1067 53.7599 21.44 53.5999C19.6824 53.6328 17.9323 53.3622 16.2667 52.7999C15.1621 52.3415 14.1636 51.6607 13.3333 50.7999C12.4482 49.9432 11.7729 48.8938 11.36 47.7333C10.709 46.1203 10.3479 44.4051 10.2933 42.6666C10.2933 39.9999 10.1333 39.0133 10.1333 31.9999C10.1333 24.9866 10.1333 23.9999 10.2933 21.3333C10.3053 19.6027 10.6212 17.8878 11.2267 16.2666C11.6961 15.141 12.4167 14.1377 13.3333 13.3333C14.1435 12.4164 15.1448 11.6882 16.2667 11.1999C17.8921 10.6134 19.6053 10.3068 21.3333 10.2933C24 10.2933 24.9867 10.1333 32 10.1333C39.0133 10.1333 40 10.1333 42.6667 10.2933C44.3594 10.3127 46.0366 10.6192 47.6267 11.1999C48.8385 11.6497 49.9261 12.3808 50.8 13.3333C51.6739 14.1524 52.3567 15.1539 52.8 16.2666C53.3927 17.8904 53.6994 19.6047 53.7067 21.3333C53.84 23.9999 53.8667 24.9866 53.8667 31.9999C53.8667 39.0133 53.84 39.9999 53.7067 42.6666ZM32 18.3199C29.2955 18.3252 26.6532 19.132 24.4071 20.6384C22.1609 22.1447 20.4117 24.2831 19.3804 26.7833C18.349 29.2834 18.0819 32.0332 18.6128 34.6851C19.1436 37.337 20.4486 39.772 22.3629 41.6825C24.2771 43.593 26.7147 44.8933 29.3676 45.419C32.0206 45.9447 34.7698 45.6722 37.2679 44.636C39.7661 43.5998 41.901 41.8464 43.403 39.5973C44.905 37.3483 45.7067 34.7044 45.7067 31.9999C45.7102 30.2002 45.3579 28.4175 44.67 26.7545C43.9821 25.0914 42.9722 23.5807 41.6983 22.3094C40.4245 21.038 38.9119 20.0311 37.2475 19.3464C35.5831 18.6617 33.7997 18.3129 32 18.3199V18.3199ZM32 40.8799C30.2437 40.8799 28.5269 40.3591 27.0665 39.3834C25.6062 38.4076 24.4681 37.0208 23.796 35.3981C23.1239 33.7755 22.948 31.9901 23.2906 30.2675C23.6333 28.545 24.479 26.9627 25.7209 25.7208C26.9628 24.4789 28.5451 23.6332 30.2676 23.2905C31.9902 22.9479 33.7756 23.1238 35.3982 23.7959C37.0208 24.468 38.4077 25.6061 39.3835 27.0665C40.3592 28.5268 40.88 30.2436 40.88 31.9999C40.88 33.1661 40.6503 34.3208 40.2041 35.3981C39.7578 36.4755 39.1037 37.4544 38.2791 38.279C37.4545 39.1036 36.4756 39.7577 35.3982 40.204C34.3209 40.6502 33.1661 40.8799 32 40.8799V40.8799Z" fill="#BF267A"/>
</svg>
