<svg width="25" height="20" viewBox="0 0 25 20" fill="none" xmlns="http://www.w3.org/2000/svg">
<path fill-rule="evenodd" clip-rule="evenodd" d="M20.8156 7.1424C20.0423 7.1424 19.4065 7.78126 19.4065 8.55139C19.4065 9.32245 20.0446 9.96035 20.8156 9.96035C21.5857 9.96035 22.2249 9.32475 22.2249 8.55139C22.2249 7.77896 21.588 7.1424 20.8156 7.1424ZM20.8156 8.27868C20.9684 8.27868 21.0886 8.39887 21.0886 8.55139C21.0886 8.70857 20.9707 8.8241 20.8156 8.8241C20.656 8.8241 20.5428 8.71086 20.5428 8.55139C20.5428 8.39657 20.6582 8.27868 20.8156 8.27868Z" fill="white"/>
<path fill-rule="evenodd" clip-rule="evenodd" d="M13.6895 7.1368C13.5388 7.13682 13.3943 7.19668 13.2878 7.30322C13.1812 7.40975 13.1213 7.55426 13.1213 7.70492V9.39785C13.1213 9.54852 13.1812 9.693 13.2878 9.79954C13.3943 9.90608 13.5388 9.96594 13.6895 9.96595H15.3828C15.5335 9.96594 15.678 9.90608 15.7846 9.79954C15.8911 9.693 15.951 9.54852 15.951 9.39785V7.70492C15.951 7.55426 15.8911 7.40975 15.7846 7.30322C15.678 7.19668 15.5335 7.13682 15.3828 7.1368H13.6895ZM14.2578 8.27302H14.8146V8.82973H14.2578V8.27302Z" fill="white"/>
<path fill-rule="evenodd" clip-rule="evenodd" d="M16.8317 10.1889C16.7187 10.189 16.6082 10.2228 16.5145 10.2859C16.4207 10.3491 16.3479 10.4388 16.3054 10.5436C16.2629 10.6483 16.2527 10.7634 16.2759 10.874C16.2992 10.9847 16.3549 11.0858 16.436 11.1646L16.8682 11.5967L16.436 12.0287C16.382 12.0812 16.3389 12.1439 16.3093 12.2131C16.2797 12.2824 16.2641 12.3569 16.2636 12.4322C16.263 12.5075 16.2774 12.5822 16.306 12.6519C16.3345 12.7216 16.3767 12.7849 16.4299 12.8382C16.4832 12.8915 16.5465 12.9336 16.6162 12.9622C16.6859 12.9907 16.7606 13.0052 16.8359 13.0046C16.9112 13.0041 16.9857 12.9886 17.0549 12.959C17.1242 12.9294 17.1869 12.8863 17.2394 12.8323L17.6717 12.4001L18.104 12.8323C18.1566 12.886 18.2193 12.9287 18.2884 12.958C18.3576 12.9873 18.4319 13.0026 18.507 13.003C18.5822 13.0034 18.6566 12.9888 18.7261 12.9603C18.7956 12.9317 18.8587 12.8897 18.9118 12.8365C18.9649 12.7834 19.007 12.7203 19.0356 12.6508C19.0641 12.5813 19.0786 12.5069 19.0782 12.4317C19.0778 12.3566 19.0625 12.2823 19.0332 12.2131C19.0039 12.144 18.9612 12.0813 18.9075 12.0287L18.4754 11.5967L18.9075 11.1646C18.9612 11.1121 19.0039 11.0494 19.0332 10.9802C19.0625 10.9111 19.0778 10.8368 19.0782 10.7616C19.0786 10.6865 19.0641 10.6121 19.0356 10.5426C19.007 10.4731 18.9649 10.41 18.9118 10.3568C18.8587 10.3037 18.7956 10.2616 18.7261 10.2331C18.6566 10.2045 18.5822 10.19 18.507 10.1904C18.4319 10.1908 18.3576 10.2061 18.2884 10.2354C18.2193 10.2647 18.1566 10.3074 18.104 10.3611L17.6717 10.7933L17.2394 10.3611C17.1864 10.3066 17.123 10.2633 17.053 10.2337C16.983 10.2041 16.9077 10.1889 16.8317 10.1889Z" fill="white"/>
<path fill-rule="evenodd" clip-rule="evenodd" d="M17.6762 4.11825C17.5706 4.11767 17.4669 4.14655 17.3767 4.20164C17.2866 4.25674 17.2136 4.33586 17.1659 4.43014L16.7482 5.25698C16.748 5.25745 16.7479 5.25793 16.7477 5.2584L16.3328 6.08524C16.2893 6.17185 16.2687 6.26814 16.273 6.36494C16.2773 6.46173 16.3062 6.55584 16.3571 6.63829C16.408 6.72074 16.4792 6.78881 16.5638 6.83603C16.6484 6.88325 16.7437 6.90804 16.8406 6.90805H17.6732H18.5058C18.6029 6.90804 18.6983 6.88318 18.783 6.83584C18.8677 6.7885 18.9389 6.72027 18.9897 6.63763C19.0406 6.55499 19.0694 6.4607 19.0735 6.36376C19.0776 6.26682 19.0567 6.17046 19.013 6.08385L18.596 5.2584L18.5954 5.25698L18.1812 4.43155C18.1342 4.33785 18.0621 4.259 17.9731 4.20371C17.884 4.14841 17.7811 4.11883 17.6762 4.11825Z" fill="white"/>
<path fill-rule="evenodd" clip-rule="evenodd" d="M6.46426 4.4117e-05C5.7946 0.00504371 5.0525 0.206005 4.30018 0.708896C3.39144 1.27297 2.70258 2.47626 2.03385 4.03159C1.36212 5.59394 0.779241 7.51571 0.410237 9.46376C0.0412328 11.4118 -0.116396 13.3813 0.0947512 15.058C0.305842 16.7345 0.897498 18.1912 2.16853 18.8706C2.16882 18.8707 2.16887 18.8708 2.16907 18.8708C2.95602 19.292 3.82556 19.133 4.54893 18.7437C5.27245 18.3543 5.94317 17.7541 6.63212 17.1372C8.01004 15.9034 9.43385 14.6635 10.8329 14.6635H14.5417C15.9407 14.6635 17.2578 15.8905 18.5414 17.1236C19.1832 17.7402 19.8066 18.3425 20.4991 18.7371C21.1916 19.1315 22.0513 19.2891 22.8328 18.8708C22.8331 18.8707 22.8331 18.8707 22.8334 18.8706C24.1039 18.1911 24.6949 16.7343 24.9056 15.0579C25.1163 13.3812 24.9584 11.4117 24.5892 9.46368C24.22 7.51564 23.6371 5.59393 22.9653 4.03159C22.2953 2.47338 21.6051 1.26843 20.6938 0.705688C19.4269 -0.139021 18.19 -0.127609 17.2792 0.232098C16.3654 0.59298 15.7577 1.23809 15.457 1.60398C15.1538 1.97288 14.337 2.05478 14.333 2.05518H10.6662C10.6622 2.0549 9.84708 1.97304 9.54313 1.60512C9.54285 1.60484 9.54265 1.60456 9.54242 1.60427C9.54242 1.60419 9.54213 1.6041 9.54213 1.60401C9.24134 1.23629 8.63411 0.592556 7.72089 0.232063C7.34953 0.085464 6.92394 -0.00339026 6.46426 4.4117e-05ZM6.46912 1.11643C6.77222 1.11813 7.04694 1.18758 7.30368 1.28893C7.93562 1.53839 8.43674 2.04713 8.66329 2.32425C8.66362 2.32463 8.66395 2.32502 8.66428 2.3254C9.41999 3.24489 10.6513 3.19144 10.6513 3.19144C10.6539 3.19145 10.6565 3.19145 10.659 3.19144H14.34C14.3425 3.19145 14.3451 3.19145 14.3477 3.19144C14.3477 3.19144 15.579 3.24489 16.3347 2.3254C16.5638 2.04663 17.0649 1.53835 17.6965 1.28891C18.3281 1.03947 19.068 0.982771 20.073 1.65722C20.0795 1.66156 20.086 1.66576 20.0927 1.66983C20.522 1.93304 21.2893 3.01042 21.9214 4.48041C22.5534 5.9504 23.119 7.80865 23.4727 9.67531C23.8265 11.5419 23.9659 13.4218 23.7781 14.9162C23.5903 16.4106 23.0869 17.4465 22.2972 17.8687C22.2971 17.8688 22.297 17.8688 22.2969 17.8689C21.8802 18.0921 21.5646 18.0363 21.0617 17.7498C20.5587 17.4632 19.9663 16.9167 19.3287 16.3042C18.0535 15.0792 16.5573 13.5272 14.5418 13.5272H10.8329C8.81739 13.5272 7.24153 15.0664 5.87425 16.2907C5.19059 16.9029 4.55234 17.4515 4.0104 17.7432C3.46845 18.0348 3.11638 18.0892 2.70502 17.8689C2.70484 17.8688 2.70466 17.8687 2.70448 17.8686C1.91398 17.4463 1.41027 16.4105 1.2221 14.9161C1.03394 13.4217 1.1731 11.5418 1.52668 9.67524C1.88026 7.8086 2.44575 5.95041 3.07778 4.48042C3.7098 3.01044 4.47689 1.93304 4.90629 1.66983C4.91295 1.66576 4.91952 1.66156 4.92601 1.65722C5.52269 1.2568 6.02617 1.11407 6.46912 1.11643Z" fill="white"/>
<path fill-rule="evenodd" clip-rule="evenodd" d="M6.54935 5.38501C4.64448 5.38501 3.09094 6.94116 3.09094 8.84291C3.09094 10.7469 4.64448 12.3036 6.54935 12.3036C8.45423 12.3036 10.0078 10.7469 10.0078 8.84291C10.0078 6.94116 8.45423 5.38501 6.54935 5.38501ZM6.54935 6.52128C7.84036 6.52128 8.87152 7.55502 8.87152 8.84291C8.87152 10.1341 7.84036 11.1673 6.54935 11.1673C5.25835 11.1673 4.22721 10.1341 4.22721 8.84291C4.22721 7.55502 5.25835 6.52128 6.54935 6.52128Z" fill="white"/>
</svg>
